<svg width="133" height="50" viewBox="0 0 133 50" fill="none" xmlns="http://www.w3.org/2000/svg">
<path d="M13.1932 39.6723H0.25V0.597412H18.8996C32.0631 0.597412 36.4501 4.12536 36.4501 11.7216C36.4501 16.2253 34.3648 20.0286 29.7601 21.2746C33.9268 22.7933 36.4501 23.7717 36.4501 31.6394C36.4501 37.3916 36.7793 38.4776 37.8219 38.4776V39.671H24.7095C24.3843 38.8028 24.0538 36.3044 24.0538 32.8342C24.0538 27.7311 23.1777 26.0471 17.1435 26.0471H13.1932V39.6723Z" fill="black"/>
<path d="M57.6795 22.2516C57.6795 19.6496 55.3188 17.3125 52.6329 17.3125C49.2308 17.3125 47.3108 19.2129 47.3108 22.2516H57.6795ZM47.3108 28.0065C47.3108 31.3692 49.943 33.5922 52.962 33.5922C54.7693 33.5922 56.4165 32.7804 57.2402 31.0951H68.1545C66.1807 38.1536 58.9425 40.4894 52.2486 40.4894C43.0313 40.4894 35.9033 35.2762 35.9033 25.7271C35.9033 16.3918 42.9776 10.4206 52.1948 10.4206C62.8363 10.4206 69.087 17.3125 69.087 28.0065H47.3108V28.0065Z" fill="black"/>
<path d="M88.9999 25.4006C88.9999 20.8943 87.0274 18.6713 84.007 18.6713C81.2647 18.6713 79.3997 21.3848 79.3997 25.1829C79.3997 29.1436 81.102 31.8597 84.0647 31.8597C87.0786 31.8597 88.9999 29.3075 88.9999 25.4006ZM78.4699 11.235V15.4712H78.5774C80.1682 11.9944 84.2811 10.4206 87.5756 10.4206C96.2407 10.4206 100.406 17.4214 100.406 25.2393C100.406 36.4159 93.3869 40.4894 86.9697 40.4894C83.8431 40.4894 81.5401 39.2369 79.6214 36.8526V49.3342H68.21V11.235H78.4699Z" fill="black"/>
<path d="M110.72 31.6945C110.72 33.1083 112.092 34.084 114.341 34.084C118.344 34.084 119.388 31.4256 119.388 27.0832C115.659 28.8734 110.72 28.0065 110.72 31.6945ZM100.683 19.9722C100.683 13.9485 105.015 10.4206 116.369 10.4206C129.974 10.4206 130.795 15.4148 130.795 22.1952V35.4926C130.795 37.1228 130.849 37.9346 132.332 39.1281V39.671H120.541L119.989 36.6309C116.753 39.6159 113.461 40.4881 109.186 40.4881C103.752 40.4881 98.9258 37.8257 98.9258 31.9122C98.9258 18.9952 119.387 24.8563 119.387 19.5381C119.387 17.4778 116.862 17.2023 115.658 17.2023C114.064 17.2023 111.923 17.5276 111.651 19.9709H100.683V19.9722Z" fill="black"/>
<path d="M1.3638 5.18241C1.57889 5.18241 1.75856 5.1352 1.75856 4.87552C1.75856 4.6788 1.62741 4.58699 1.35724 4.58699H0.903464V5.18241H1.3638ZM0.249023 4.086H1.55397C2.02611 4.086 2.4012 4.31551 2.4012 4.80208C2.4012 5.08667 2.27267 5.29389 2.01431 5.4093C2.173 5.45914 2.28579 5.56668 2.33038 5.728C2.36972 5.86046 2.37628 5.88931 2.40776 6.2526C2.41956 6.36801 2.41956 6.469 2.48907 6.56474H1.82545C1.76119 6.41392 1.76774 6.20932 1.7507 6.04538C1.71922 5.75161 1.60774 5.64144 1.30478 5.64144H0.903464V6.56474H0.249023V4.086Z" fill="white"/>
<path d="M4.80021 4.60666H3.44543V5.03421H4.68349V5.53652H3.44543V6.01915H4.83169V6.56474H2.79492V4.086H4.80021V4.60666Z" fill="white"/>
<path d="M6.21647 4.77719L5.92793 5.64409H6.49713L6.21647 4.77719ZM7.48338 6.56346H6.80795L6.64664 6.11099H5.78236L5.6158 6.56346H4.94824L5.88597 4.08209H6.54696L7.48338 6.56346Z" fill="white"/>
<path d="M9.50432 6.56343H7.67871V4.08469H8.33708V6.00735H9.50432V6.56343Z" fill="white"/>
<path d="M2.26115 8.78245H0.906363V9.21H2.14574V9.71099H0.906363V10.1936H2.29393V10.7392H0.255859V8.26047H2.26115V8.78245Z" fill="white"/>
<path d="M3.97343 9.00412C3.959 8.80608 3.81867 8.70247 3.56555 8.70247C3.36096 8.70247 3.23374 8.78117 3.23374 8.91363C3.23374 9.01986 3.27965 9.06314 3.42522 9.10117C3.72031 9.17855 4.05212 9.25855 4.30786 9.37659C4.56098 9.49593 4.69738 9.70315 4.69738 9.97857C4.69738 10.4769 4.28032 10.793 3.62326 10.793C2.92816 10.793 2.51504 10.4664 2.50586 9.90644H3.16292C3.16292 10.1976 3.36096 10.2986 3.66523 10.2986C3.90785 10.2986 4.039 10.2094 4.039 10.0494C4.039 9.91693 3.95769 9.85004 3.7072 9.78446C3.53277 9.73594 3.25079 9.64807 3.08948 9.59036C2.75504 9.47101 2.60029 9.27691 2.60029 8.97264C2.60029 8.50313 2.99243 8.20804 3.61014 8.20804C4.23704 8.20804 4.58459 8.49001 4.59508 9.00412H3.97343Z" fill="white"/>
<path d="M6.99816 8.80999H6.25585V10.7379H5.59485V8.80999H4.85254V8.26047H6.99816V8.80999Z" fill="white"/>
<path d="M7.97818 8.95297L7.68965 9.81987H8.25885L7.97818 8.95297ZM9.2451 10.7379H8.56967L8.40836 10.2855H7.54408L7.37751 10.7379H6.70996L7.64769 8.25656H8.30999L9.2451 10.7379Z" fill="white"/>
<path d="M11.1046 8.80999H10.3623V10.7379H9.7013V8.80999H8.95898V8.26047H11.1046V8.80999Z" fill="white"/>
<path d="M13.4008 8.78245H12.046V9.21H13.2841V9.71099H12.046V10.1936H13.4336V10.7392H11.3955V8.26047H13.4008V8.78245Z" fill="white"/>
<path d="M1.27883 13.5826C1.50441 13.5826 1.71294 13.5642 1.71294 13.277C1.71294 13.0357 1.5608 12.9622 1.3326 12.9622H0.910298V13.5826H1.27883ZM0.255859 12.435H1.35752C1.93065 12.435 2.34508 12.658 2.34508 13.2704C2.34508 13.8278 1.98442 14.0849 1.46244 14.0849H0.910298V14.9137H0.255859V12.435Z" fill="white"/>
<path d="M3.772 13.5314C3.98709 13.5314 4.16677 13.4855 4.16677 13.2245C4.16677 13.0304 4.03562 12.936 3.76545 12.936H3.31167V13.5314H3.772ZM2.65723 12.435H3.96217C4.43431 12.435 4.8094 12.6645 4.8094 13.1524C4.8094 13.437 4.68088 13.6416 4.42251 13.7583C4.5812 13.8108 4.69399 13.917 4.73858 14.0783C4.77793 14.2108 4.78448 14.237 4.81727 14.6029C4.82645 14.7183 4.82645 14.8193 4.89727 14.9137H4.23365C4.16939 14.7629 4.17595 14.5583 4.16021 14.3944C4.12742 14.1032 4.01463 13.9918 3.71299 13.9918H3.31167V14.9137H2.65723V12.435Z" fill="white"/>
<path d="M6.3517 12.902C5.99891 12.902 5.77727 13.1971 5.77727 13.6666C5.77727 14.1518 5.99235 14.4391 6.35433 14.4391C6.70843 14.4391 6.91696 14.1505 6.91696 13.6561C6.91696 13.1866 6.70187 12.902 6.3517 12.902ZM6.36482 14.9715C5.59103 14.9715 5.1084 14.4286 5.1084 13.6731C5.1084 12.9387 5.60546 12.3748 6.35826 12.3748C7.10451 12.3748 7.58583 12.8797 7.58583 13.6758C7.58452 14.405 7.12418 14.9715 6.36482 14.9715Z" fill="white"/>
<path d="M9.78608 12.974H8.59261V13.4501H9.62739V13.959H8.59261V14.9124H7.93555V12.4337H9.78608V12.974Z" fill="white"/>
<path d="M12.0922 12.957H10.7387V13.3845H11.9768V13.8855H10.7387V14.3682H12.125V14.9124H10.0869V12.435H12.0922V12.957Z" fill="white"/>
<path d="M13.8045 13.1786C13.7901 12.9806 13.6497 12.877 13.3966 12.877C13.192 12.877 13.0648 12.9557 13.0648 13.0881C13.0648 13.1944 13.1107 13.2376 13.2563 13.2757C13.5514 13.3531 13.8819 13.4331 14.1389 13.5511C14.392 13.6704 14.5284 13.8777 14.5284 14.1531C14.5284 14.6514 14.1114 14.9675 13.4543 14.9675C12.7592 14.9675 12.3461 14.6409 12.3369 14.0809H12.994C12.994 14.3721 13.192 14.4731 13.4963 14.4731C13.7389 14.4731 13.8701 14.3839 13.8701 14.2239C13.8701 14.0914 13.7887 14.0245 13.5383 13.959C13.3638 13.9104 13.0818 13.8226 12.9205 13.7649C12.5861 13.6468 12.4313 13.4514 12.4313 13.1498C12.4313 12.6789 12.8235 12.3839 13.4412 12.3839C14.0681 12.3839 14.4156 12.6658 14.4261 13.1799H13.8045V13.1786Z" fill="white"/>
<path d="M16.1499 13.1786C16.1367 12.9806 15.9951 12.877 15.742 12.877C15.5374 12.877 15.4102 12.9557 15.4102 13.0881C15.4102 13.1944 15.4561 13.2376 15.6016 13.2757C15.8967 13.3531 16.2272 13.4331 16.4843 13.5511C16.7374 13.6704 16.8738 13.8777 16.8738 14.1531C16.8738 14.6514 16.4567 14.9675 15.8023 14.9675C15.1059 14.9675 14.6941 14.6409 14.6836 14.0809H15.3407C15.3407 14.3721 15.5387 14.4731 15.8443 14.4731C16.0856 14.4731 16.2167 14.3839 16.2167 14.2239C16.2167 14.0914 16.1367 14.0245 15.8876 13.959C15.7118 13.9104 15.4285 13.8226 15.2672 13.7649C14.9328 13.6468 14.778 13.4514 14.778 13.1498C14.778 12.6789 15.1702 12.3839 15.7879 12.3839C16.4148 12.3839 16.7623 12.6658 16.7728 13.1799H16.1499V13.1786Z" fill="white"/>
<path d="M17.8446 12.435H17.1875V14.9137H17.8446V12.435Z" fill="white"/>
<path d="M19.4409 12.902C19.0894 12.902 18.8678 13.1971 18.8678 13.6666C18.8678 14.1518 19.0815 14.4391 19.4435 14.4391C19.7989 14.4391 20.0061 14.1505 20.0061 13.6561C20.0075 13.1866 19.7937 12.902 19.4409 12.902ZM19.4566 14.9715C18.6828 14.9715 18.2002 14.4286 18.2002 13.6731C18.2002 12.9387 18.6959 12.3748 19.4501 12.3748C20.1963 12.3748 20.6776 12.8797 20.6776 13.6758C20.6763 14.405 20.216 14.9715 19.4566 14.9715Z" fill="white"/>
<path d="M21.0273 12.435H21.6818L22.5854 14.0009L22.5579 12.435H23.1913V14.9124H22.5539L21.6385 13.3229L21.6569 14.9124H21.0273V12.435Z" fill="white"/>
<path d="M24.6494 13.1275L24.3609 13.9931H24.9314L24.6494 13.1275ZM25.915 14.9125H25.2396L25.0783 14.46H24.214L24.0474 14.9125H23.3799L24.3176 12.4324H24.9799L25.915 14.9125Z" fill="white"/>
<path d="M27.9379 14.9124H26.1123V12.4337H26.7694V14.355H27.9379V14.9124Z" fill="white"/>
<path d="M29.5688 13.1786C29.5557 12.9806 29.414 12.877 29.1609 12.877C28.9563 12.877 28.8291 12.9557 28.8291 13.0881C28.8291 13.1944 28.875 13.2376 29.0206 13.2757C29.3157 13.3531 29.6462 13.4331 29.9032 13.5511C30.1564 13.6704 30.2927 13.8777 30.2927 14.1531C30.2927 14.6514 29.8757 14.9675 29.2213 14.9675C28.5248 14.9675 28.113 14.6409 28.1025 14.0809H28.7596C28.7596 14.3721 28.9576 14.4731 29.2632 14.4731C29.5045 14.4731 29.6357 14.3839 29.6357 14.2239C29.6357 14.0914 29.5557 14.0245 29.3065 13.959C29.1308 13.9104 28.8475 13.8226 28.6862 13.7649C28.3517 13.6468 28.197 13.4514 28.197 13.1498C28.197 12.6789 28.5891 12.3839 29.2068 12.3839C29.8337 12.3839 30.1813 12.6658 30.1918 13.1799H29.5688V13.1786Z" fill="white"/>
<path d="M31.224 12.9321C31.224 13.3845 31.0377 13.6311 30.5879 13.6731V13.3911C30.761 13.3557 30.8554 13.2455 30.8659 13.0593H30.5879V12.4337H31.224V12.9321Z" fill="white"/>
<path d="M1.26954 17.3033L0.981006 18.1689H1.5502L1.26954 17.3033ZM2.53514 19.087H1.85971L1.6984 18.6358H0.831494L0.666245 19.087H0L0.937725 16.6069H1.60004L2.53514 19.087Z" fill="white"/>
<path d="M4.0395 17.3545C4.02639 17.1552 3.88475 17.0516 3.63163 17.0516C3.42703 17.0516 3.29982 17.1316 3.29982 17.264C3.29982 17.3676 3.34572 17.4135 3.4913 17.4516C3.78638 17.529 4.11819 17.6076 4.37394 17.727C4.62706 17.845 4.76345 18.0536 4.76345 18.329C4.76345 18.8273 4.3464 19.1421 3.69196 19.1421C2.99555 19.1421 2.58373 18.8155 2.57324 18.2555H3.23031C3.23031 18.5493 3.42834 18.649 3.73392 18.649C3.97524 18.649 4.10639 18.5585 4.10639 18.3972C4.10639 18.266 4.02639 18.1991 3.7772 18.1322C3.60146 18.0837 3.31818 17.9985 3.15686 17.9395C2.82243 17.8201 2.66898 17.6247 2.66898 17.3217C2.66898 16.8522 3.0585 16.5571 3.67753 16.5571C4.30443 16.5571 4.65198 16.8391 4.66247 17.3532H4.0395V17.3545Z" fill="white"/>
<path d="M6.38618 17.3545C6.37307 17.1552 6.23142 17.0516 5.9783 17.0516C5.77371 17.0516 5.64649 17.1316 5.64649 17.264C5.64649 17.3676 5.6924 17.4135 5.83797 17.4516C6.13306 17.529 6.46487 17.6076 6.72061 17.727C6.97373 17.845 7.11013 18.0536 7.11013 18.329C7.11013 18.8273 6.69307 19.1421 6.03863 19.1421C5.34222 19.1421 4.93041 18.8155 4.91992 18.2555H5.57698C5.57698 18.5493 5.77502 18.649 6.0806 18.649C6.32192 18.649 6.45307 18.5585 6.45307 18.3972C6.45307 18.266 6.37307 18.1991 6.12388 18.1322C5.94814 18.0837 5.66486 17.9985 5.50354 17.9395C5.16911 17.8201 5.01435 17.6247 5.01435 17.3217C5.01435 16.8522 5.40387 16.5571 6.02421 16.5571C6.6511 16.5571 6.99865 16.8391 7.00914 17.3532H6.38618V17.3545Z" fill="white"/>
<path d="M8.56914 17.0764C8.21635 17.0764 7.9947 17.3715 7.9947 17.8411C7.9947 18.3263 8.20979 18.6135 8.57177 18.6135C8.92587 18.6135 9.1344 18.325 9.1344 17.8306C9.13571 17.3624 8.92063 17.0764 8.56914 17.0764ZM8.58226 19.146C7.80847 19.146 7.32715 18.603 7.32715 17.8502C7.32715 17.1145 7.8229 16.5505 8.5757 16.5505C9.32195 16.5505 9.80327 17.0555 9.80327 17.8515C9.80327 18.5794 9.34293 19.146 8.58226 19.146Z" fill="white"/>
<path d="M12.4834 18.1204C12.4768 18.3119 12.4559 18.3853 12.368 18.5598C12.1699 18.9558 11.829 19.1473 11.3332 19.1473C10.5568 19.1473 10.082 18.5899 10.082 17.8424C10.082 17.0791 10.5988 16.5505 11.3437 16.5505C11.9037 16.5505 12.4244 16.8942 12.469 17.483H11.8263C11.7686 17.226 11.6008 17.0935 11.3306 17.0935C10.9712 17.0935 10.743 17.3925 10.743 17.8568C10.743 18.304 10.9752 18.5965 11.3306 18.5965C11.6191 18.5965 11.787 18.4378 11.8329 18.1204H12.4834Z" fill="white"/>
<path d="M13.4832 16.6096H12.8262V19.087H13.4832V16.6096Z" fill="white"/>
<path d="M14.9482 17.3033L14.6597 18.1689H15.2289L14.9482 17.3033ZM16.2138 19.087H15.5384L15.3771 18.6358H14.5102L14.345 19.087H13.6787L14.6164 16.6069H15.2787L16.2138 19.087Z" fill="white"/>
<path d="M18.0734 17.1605H17.331V19.087H16.67V17.1605H15.9277V16.6096H18.0734V17.1605Z" fill="white"/>
<path d="M19.0223 16.6096H18.3652V19.087H19.0223V16.6096Z" fill="white"/>
<path d="M20.6189 17.0764C20.2675 17.0764 20.0458 17.3715 20.0458 17.8411C20.0458 18.3263 20.2596 18.6135 20.6216 18.6135C20.977 18.6135 21.1842 18.325 21.1842 17.8306C21.1842 17.3624 20.9704 17.0764 20.6189 17.0764ZM20.6334 19.146C19.8596 19.146 19.377 18.603 19.377 17.8502C19.377 17.1145 19.8727 16.5505 20.6268 16.5505C21.3731 16.5505 21.8544 17.0555 21.8544 17.8515C21.8544 18.5794 21.394 19.146 20.6334 19.146Z" fill="white"/>
<path d="M22.2051 16.6108H22.8595L23.7631 18.1768L23.7356 16.6108H24.3691V19.087H23.733L22.8176 17.4974L22.8346 19.087H22.2051V16.6108Z" fill="white"/>
</svg>
